<?xml version="1.0" encoding="UTF-8"?> <svg xmlns="http://www.w3.org/2000/svg" width="712" height="171" viewBox="0 0 712 171" fill="none"> <path d="M610.5 59.2002H569.5V18.2002H610.5V59.2002ZM573 55.7002H607V21.7002H573V55.7002Z" fill="#CF637C"></path> <path d="M588.5 51.6003H580.9V25.8003H588.5V51.6003ZM583.7 48.8003H585.7V28.6003H583.7V48.8003Z" fill="#CF637C"></path> <path d="M599.1 51.6003H591.5V25.8003H599.1V51.6003ZM594.3 48.8003H596.3V28.6003H594.3V48.8003Z" fill="#CF637C"></path> <path d="M19.8 19.8002L7.7 38.5002L19.8 57.5002H12.5L0 38.5002L12.5 19.7002L19.8 19.8002ZM36.9 19.8002L24.8 38.5002L36.9 57.5002H29.6L17.1 38.5002L29.6 19.7002L36.9 19.8002Z" fill="#CF637C"></path> <path d="M88.3 40L95.2001 41.1C93.0001 53.4 84.2 60.1 70.5 60.1C53.7 60.1 43.3 48.7 43.3 30.1C43.3 11.1 54.2001 0 70.6001 0C84.4001 0 93.2001 6.7 95.1001 19L88.2001 20.1C86.4001 12.4 81.3001 6.6 70.6001 6.6C57.5001 6.6 50.6001 16.1 50.6001 30.1C50.6001 44.2 57.7001 53.4 70.6001 53.4C81.3001 53.5 86.6 48.1 88.3 40Z" fill="#CF637C"></path> <path d="M101.5 18.3999H138.4V24.6999H123.4V59.1999H116.5V24.6999H101.5V18.3999Z" fill="#CF637C"></path> <path d="M145.6 18.4H152.5V24.2C155.4 19.7 160.9 17.5 166.5 17.5C176.5 17.5 184.7 24.7 184.7 38.3C184.7 51.8 177.1 60 165.5 60C160.1 60 155.6 58.1 152.6 54.7V75.8H145.7V18.4H145.6ZM165.4 54C172.9 54 177.7 47.9 177.7 38.6C177.7 29.6 173 23.6 165.2 23.6C158.9 23.6 152.4 28.3 152.4 37.2V42.1C152.5 49.6 158.5 54 165.4 54Z" fill="#CF637C"></path> <path d="M218.5 54.4001C215.9 57.7001 211.7 60.1001 205.9 60.1001C197 60.1001 191.4 55.6001 191.4 48.0001C191.4 39.5001 197.5 36.0001 206.9 35.7001C211.1 35.5001 215.1 35.7001 218.3 35.8001V32.3001C218.3 26.3001 214.9 23.6001 209.6 23.6001C203.7 23.6001 200.5 26.9001 199.2 31.1001L192.8 29.8001C194.6 22.3001 200.4 17.6001 209.6 17.6001C218.7 17.6001 224.9 22.0001 224.9 32.0001V59.3001H218.5V54.4001ZM207.1 41.1001C201.3 41.4001 198.3 43.6001 198.3 47.6001C198.3 51.5001 201.3 54.2001 206.1 54.2001C213 54.2001 218.4 50.5001 218.4 45.0001V41.1001C214.9 40.9001 210.9 40.9001 207.1 41.1001Z" fill="#CF637C"></path> <path d="M260 47.2001C260 43.3001 257.5 41.3001 251.8 41.3001H244.6V35.7001H251.8C257 35.7001 259.2 33.5001 259.2 29.8001C259.2 25.9001 256.5 23.5001 250.7 23.5001C244.3 23.5001 240.8 26.8001 239.5 31.3001L232.9 30.0001C234.8 22.0001 241.4 17.6001 250.7 17.6001C260 17.6001 265.9 21.7001 265.9 29.2001C265.9 33.5001 263.8 37.0001 259.9 38.4001C264.3 39.6001 266.9 42.9001 266.9 47.8001C266.9 55.5001 260.6 60.1001 250.3 60.1001C240.9 60.1001 234.3 56.0001 232.6 47.6001L239.2 46.3001C240.2 50.8001 243.7 54.2001 250.3 54.2001C256.9 54.2001 260 51.3001 260 47.2001Z" fill="#CF637C"></path> <path d="M276 18.3999H282.9V32.4999H293.5C303 32.4999 307.9 37.0999 307.9 45.3999C307.9 54.0999 303.4 59.1999 293.3 59.1999H276V18.3999ZM282.9 38.5999V52.9999H293.4C299.7 52.9999 301.4 49.8999 301.4 45.4999C301.4 40.9999 299.7 38.5999 293.5 38.5999H282.9ZM314 18.3999H320.9V59.1999H314V18.3999Z" fill="#CF637C"></path> <path d="M335.7 49.2998C338.6 49.2998 340.8 51.3998 340.8 54.4998C340.8 57.6998 338.6 59.6998 335.7 59.6998C332.8 59.6998 330.6 57.5998 330.6 54.4998C330.5 51.3998 332.8 49.2998 335.7 49.2998Z" fill="#CF637C"></path> <path d="M414.1 40.0001L421 41.1001C418.8 53.4001 410 60.1001 396.3 60.1001C379.5 60.1001 369 48.8001 369 30.2001C369 11.2001 379.9 0.100098 396.3 0.100098C410.1 0.100098 418.9 6.8001 420.8 19.1001L413.9 20.2001C412.1 12.5001 407 6.7001 396.3 6.7001C383.2 6.7001 376.3 16.2001 376.3 30.2001C376.3 44.3001 383.4 53.5001 396.3 53.5001C407.1 53.5001 412.4 48.1001 414.1 40.0001Z" fill="#CF637C"></path> <path d="M427.3 18.3999H464.2V24.6999H449.2V59.1999H442.3V24.6999H427.3V18.3999Z" fill="#CF637C"></path> <path d="M471.4 18.4H478.3V24.2C481.2 19.7 486.7 17.5 492.3 17.5C502.3 17.5 510.5 24.7 510.5 38.3C510.5 51.8 502.9 60 491.3 60C485.9 60 481.4 58.1 478.4 54.7V75.8H471.5V18.4H471.4ZM491.3 54C498.8 54 503.6 47.9 503.6 38.6C503.6 29.6 498.9 23.6 491.1 23.6C484.8 23.6 478.3 28.3 478.3 37.2V42.1C478.3 49.6 484.3 54 491.3 54Z" fill="#CF637C"></path> <path d="M519.6 59.1999V18.3999H526.2V50.3999L546.7 18.3999H554.2V59.1999H547.6V27.0999L526.9 59.2999L519.6 59.1999Z" fill="#CF637C"></path> <path d="M40 95.6001H77.6V102.5H47.4V154H40V95.6001Z" fill="#CF637C"></path> <path d="M75.1001 113.1H104V153.9H97.1001V119.4H81.4001C81.3001 126.1 81.1001 134.8 81.0001 139.7C80.6001 150.6 77.1001 153.8 69.3001 153.8H66.1001V147.5H68.6001C72.7001 147.5 74.3001 145.1 74.6001 139.1C74.9001 132.7 75.1001 119.7 75.1001 113.1Z" fill="#CF637C"></path> <path d="M140.2 149.1C137.6 152.4 133.4 154.8 127.6 154.8C118.7 154.8 113.1 150.3 113.1 142.7C113.1 134.2 119.2 130.7 128.6 130.4C132.8 130.2 136.8 130.4 140 130.5V127C140 121 136.6 118.3 131.3 118.3C125.4 118.3 122.2 121.6 120.9 125.8L114.5 124.5C116.3 117 122.1 112.3 131.3 112.3C140.4 112.3 146.6 116.7 146.6 126.7V154H140.2V149.1ZM128.8 135.8C123 136.1 120 138.3 120 142.3C120 146.2 123 148.9 127.8 148.9C134.7 148.9 140.1 145.2 140.1 139.7V135.8C136.6 135.6 132.7 135.6 128.8 135.8Z" fill="#CF637C"></path> <path d="M157.6 113.1H167.6L181.5 147.1L195.1 113.1H205.1V153.9H198.4V120.5L184.6 153.9H177.7L163.9 120.5V153.9H157.6V113.1Z" fill="#CF637C"></path> <path d="M220.5 170.5H216.6V164.2H219.2C223.1 164.2 225.9 162.7 227.8 158.2L229.6 153.7L212.1 113.1H219.6L233 145.4L245 113.1H252.1L233.6 160.1C230.5 167.9 226.7 170.5 220.5 170.5Z" fill="#CF637C"></path> <path d="M259 113.1H265.9V118.9C268.8 114.4 274.3 112.2 279.9 112.2C289.9 112.2 298.1 119.4 298.1 133C298.1 146.5 290.5 154.7 278.9 154.7C273.5 154.7 269 152.8 266 149.4V170.5H259.1V113.1H259ZM278.8 148.6C286.3 148.6 291.1 142.5 291.1 133.3C291.1 124.3 286.4 118.3 278.6 118.3C272.3 118.3 265.8 123 265.8 131.9V136.8C265.9 144.3 271.9 148.6 278.8 148.6Z" fill="#CF637C"></path> <path d="M302.4 152.2L314.5 133.4L302.4 114.4H309.7L322.2 133.4L309.7 152.2H302.4ZM319.5 152.2L331.6 133.4L319.5 114.4H326.8L339.3 133.4L326.8 152.2H319.5Z" fill="#CF637C"></path> <path d="M622.7 18.4004H649.8V24.7004H629.6V59.2004H622.7V18.4004Z" fill="#CF637C"></path> <path d="M657 59.2004V18.4004H663.6V50.4004L684.1 18.4004H691.6V59.2004H685V27.1004L664.3 59.3004L657 59.2004Z" fill="#CF637C"></path> <path d="M706.5 49.3003C709.4 49.3003 711.6 51.4003 711.6 54.5003C711.6 57.7003 709.4 59.7003 706.5 59.7003C703.6 59.7003 701.4 57.6003 701.4 54.5003C701.3 51.4003 703.5 49.3003 706.5 49.3003Z" fill="#CF637C"></path> </svg> 